<?xml version="1.0" standalone="no"?>
<!DOCTYPE svg PUBLIC "-//W3C//DTD SVG 20010904//EN"
 "http://www.w3.org/TR/2001/REC-SVG-20010904/DTD/svg10.dtd">
<svg version="1.0" xmlns="http://www.w3.org/2000/svg"
 width="1024.000000pt" height="1024.000000pt" viewBox="0 0 1024.000000 1024.000000"
 preserveAspectRatio="xMidYMid meet">

<g transform="translate(0.000000,1024.000000) scale(0.100000,-0.100000)"
fill="#000000" stroke="none">
<path d="M4205 10114 c-706 -62 -1325 -346 -1810 -829 -423 -422 -712 -976
-804 -1540 -6 -38 -17 -97 -23 -130 -7 -39 -12 -339 -15 -849 l-4 -788 -716
-1861 -716 -1861 12 -62 c71 -385 695 -913 1560 -1319 773 -364 1660 -609
2541 -704 364 -39 483 -45 890 -45 407 0 526 6 890 45 803 86 1627 302 2345
614 966 420 1680 993 1756 1409 l12 62 -716 1861 -716 1861 -4 788 c-3 510 -8
810 -15 849 -6 33 -17 92 -23 130 -98 603 -432 1211 -894 1627 -389 350 -855
588 -1346 688 -268 55 -236 53 -1234 55 -511 1 -948 1 -970 -1z m-60 -3064
c260 -55 520 -166 771 -328 148 -96 260 -96 408 -1 255 165 506 272 772 329
124 27 429 38 583 21 558 -61 957 -307 1277 -789 85 -128 201 -346 269 -505
25 -60 341 -865 701 -1790 634 -1626 655 -1684 652 -1739 -7 -97 -75 -160
-175 -160 -59 0 -122 37 -149 87 -12 22 -318 801 -679 1730 -362 930 -682
1744 -712 1809 -133 291 -267 491 -436 652 -235 225 -476 325 -856 355 -357
28 -670 -59 -1036 -289 -137 -86 -220 -118 -334 -131 -74 -8 -200 -1 -254 14
-68 19 -145 57 -251 123 -209 131 -421 219 -630 264 -81 17 -134 21 -271 21
-281 -1 -469 -40 -671 -138 -331 -161 -588 -479 -799 -990 -20 -49 -318 -812
-662 -1695 -343 -883 -638 -1638 -655 -1678 -34 -81 -69 -116 -133 -129 -113
-25 -205 42 -213 154 -3 57 13 101 641 1713 754 1935 715 1839 823 2048 338
657 769 982 1407 1062 40 5 171 7 292 5 179 -2 239 -7 320 -25z m-95 -874
c196 -32 378 -108 477 -200 72 -66 139 -163 177 -254 53 -126 56 -152 56 -493
0 -311 0 -317 -22 -349 -13 -18 -47 -45 -77 -60 -107 -55 -111 -55 -966 -55
l-790 0 -57 23 c-80 32 -150 99 -190 180 -31 62 -33 74 -33 167 1 174 72 402
179 568 113 177 407 368 671 436 190 49 412 64 575 37z m2535 -1 c223 -34 409
-103 579 -216 215 -143 322 -286 399 -534 42 -135 52 -186 52 -290 0 -93 -2
-105 -33 -167 -40 -81 -110 -148 -190 -180 l-57 -23 -790 0 c-855 0 -859 0
-966 55 -30 15 -64 42 -77 61 l-23 34 3 340 3 340 33 86 c70 185 191 322 347
395 222 104 466 137 720 99z m-1301 -1797 c84 -26 169 -82 231 -150 57 -64 87
-115 116 -198 22 -62 23 -80 23 -380 l1 -315 -535 0 -535 0 -3 250 c-1 138 2
289 7 336 12 108 48 198 110 275 148 183 363 250 585 182z m-344 -2113 l0
-715 -265 0 -265 0 0 715 0 715 265 0 265 0 0 -715z m890 0 l0 -715 -265 0
-265 0 0 715 0 715 265 0 265 0 0 -715z m-1780 -185 l0 -530 -180 0 -180 0 0
357 0 358 172 172 c95 95 176 173 180 173 5 0 8 -238 8 -530z m2327 358 l173
-173 0 -357 0 -358 -180 0 -180 0 0 530 c0 292 3 530 7 530 4 0 85 -78 180
-172z m-3292 -648 c177 -76 212 -317 64 -443 -146 -126 -368 -58 -430 131 -15
47 -6 139 19 188 21 40 82 102 122 124 58 31 153 31 225 0z m4281 5 c45 -18
112 -82 136 -129 25 -49 34 -141 19 -188 -48 -146 -192 -225 -333 -184 -217
63 -258 367 -64 481 74 44 165 51 242 20z"/>
</g>
</svg>
